<svg version="1.1" id="Layer_1" xmlns="http://www.w3.org/2000/svg" xmlns:xlink="http://www.w3.org/1999/xlink" x="0px" y="0px"
	 width="100%" viewBox="0 0 1024 384" enable-background="new 0 0 1024 384" xml:space="preserve">
<path fill="#000000" opacity="1.000000" stroke="none" 
	d="
M672.000000,385.000000 
	C448.000000,385.000000 224.500000,385.000000 1.000000,385.000000 
	C1.000000,257.000000 1.000000,129.000000 1.000000,1.000000 
	C342.333344,1.000000 683.666687,1.000000 1025.000000,1.000000 
	C1025.000000,129.000000 1025.000000,257.000000 1025.000000,385.000000 
	C907.500000,385.000000 790.000000,385.000000 672.000000,385.000000 
M150.004242,279.729706 
	C152.420273,275.555206 154.841156,271.383514 157.251526,267.205719 
	C171.621231,242.299545 185.840256,217.304031 200.508118,192.574722 
	C202.849060,188.627991 202.861282,185.922119 200.660553,182.287140 
	C195.674469,174.051529 190.994095,165.631424 186.110031,157.333084 
	C184.805130,155.115967 183.656250,152.630341 180.824020,151.695984 
	C178.270493,153.707123 177.019638,156.437622 175.541290,159.006653 
	C168.415070,171.390335 161.268280,183.762192 154.147888,196.149231 
	C141.141998,218.774979 128.196442,241.435669 115.087303,264.001373 
	C113.587898,266.582428 113.796486,268.462952 115.256134,270.849365 
	C118.639961,276.381500 121.792130,282.055420 125.032913,287.674896 
	C131.177399,298.329498 137.288300,309.003601 143.480957,319.630096 
	C145.091751,322.394196 146.888885,324.685272 150.790848,324.677948 
	C200.949112,324.584015 251.107651,324.607452 301.266052,324.652954 
	C304.056671,324.655487 305.862518,323.738525 307.302002,321.220245 
	C321.327789,296.682098 335.386932,272.162140 349.620636,247.744324 
	C352.669739,242.513596 354.905731,236.682693 359.684906,232.170853 
	C360.662598,234.241608 361.590393,235.999161 362.340851,237.829407 
	C367.775696,251.084473 376.505646,261.892578 387.646942,270.636017 
	C401.168945,281.247772 416.771667,286.863983 433.851929,288.755066 
	C457.826782,291.409576 481.026276,289.471710 502.542633,277.562286 
	C523.017029,266.229553 536.066040,249.291473 540.775085,226.101288 
	C541.665894,221.714417 540.427429,220.326324 536.180847,220.364517 
	C523.683899,220.476898 511.184082,220.511398 498.688110,220.356369 
	C494.720490,220.307144 492.647858,221.875000 491.365082,225.589081 
	C488.656982,233.430252 484.321106,240.158524 477.291809,244.997040 
	C471.647003,248.882599 465.410461,250.575363 458.728638,251.598358 
	C435.314026,255.183243 416.280060,243.906662 408.388763,222.820312 
	C400.831299,202.626068 400.771515,181.897110 405.692719,161.075974 
	C408.670288,148.478043 415.043579,137.819031 425.881409,130.644165 
	C446.257202,117.155006 482.105164,121.632462 491.576782,151.836945 
	C492.364868,154.350174 494.000397,155.628067 496.754395,155.617599 
	C509.918640,155.567551 523.083252,155.568497 536.247559,155.610077 
	C539.886475,155.621567 541.096863,153.656693 540.404175,150.470139 
	C538.922302,143.653549 537.235046,136.812332 533.766052,130.727036 
	C514.887573,97.610611 484.249084,86.252197 448.327850,85.702087 
	C440.859467,85.587708 433.190002,86.722618 425.655029,88.313667 
	C398.184082,94.114273 377.098145,108.192116 364.237122,133.670822 
	C362.717468,136.681427 362.109375,140.233368 359.083466,143.250168 
	C355.344116,136.913101 351.776245,130.958572 348.296417,124.953033 
	C334.715088,101.514145 321.148041,78.066902 307.615234,54.599957 
	C305.969025,51.745270 303.840668,50.342216 300.376801,50.347969 
	C250.885086,50.430149 201.393173,50.435715 151.901413,50.367443 
	C147.973694,50.362026 145.448151,51.677574 143.449188,55.188000 
	C132.008881,75.278725 120.375450,95.259491 108.806259,115.276817 
	C95.661339,138.020569 82.571747,160.796722 69.298492,183.465332 
	C67.613503,186.343033 67.693359,188.627258 69.273811,191.306198 
	C73.835495,199.038513 78.310333,206.822021 82.828407,214.580124 
	C85.272781,218.777420 86.971336,223.472946 90.348579,226.832718 
	C92.403206,226.324860 92.822937,224.936218 93.458694,223.819626 
	C97.900566,216.018402 102.225769,208.150146 106.716751,200.377563 
	C125.017807,168.703720 143.790665,137.291245 161.450912,105.264809 
	C167.186996,94.862556 173.573181,89.019348 185.718246,91.593765 
	C186.515884,91.762840 187.390961,91.706345 188.211258,91.604218 
	C191.395676,91.207771 193.297516,92.426659 194.943436,95.354126 
	C203.580765,110.716507 212.489639,125.926071 221.279663,141.202820 
	C225.026917,147.715439 226.221893,147.858017 230.016235,141.383133 
	C238.087006,127.610756 246.194077,113.849182 253.796036,99.817574 
	C256.962982,93.972046 260.444794,90.299446 267.637573,91.507332 
	C270.880066,92.051849 274.297760,91.774338 277.617706,91.571495 
	C280.684326,91.384125 282.367065,92.638756 283.893219,95.291039 
	C300.551270,124.240349 317.300446,153.137573 334.148773,181.976578 
	C336.439148,185.896988 336.300812,189.201614 334.037445,193.076187 
	C319.532257,217.906677 305.192169,242.833572 290.772461,267.714081 
	C287.856354,272.745667 285.880463,279.137817 281.565826,282.316559 
	C277.148376,285.570984 270.288757,283.056183 264.509827,283.384430 
	C262.848755,283.478790 261.177856,283.402435 259.511475,283.402557 
	C252.546570,283.402985 245.581665,283.402710 238.702454,283.402710 
	C238.131317,280.396484 239.510773,278.581848 240.538193,276.747925 
	C243.138702,272.106171 245.927765,267.570557 248.596024,262.966187 
	C262.685242,238.653519 276.743622,214.322983 290.874908,190.034851 
	C291.918152,188.241791 292.082306,186.831970 290.984558,184.989288 
	C285.291534,175.432861 279.822052,165.742157 274.054932,156.231476 
	C270.526306,150.412338 269.637115,150.393631 266.184540,156.251770 
	C255.893143,173.713547 245.754990,191.266022 235.617783,208.818176 
	C221.811981,232.722336 208.053864,256.654083 194.306641,280.591980 
	C193.324875,282.301514 192.228119,283.409698 190.056732,283.399719 
	C177.392700,283.341400 164.728241,283.378418 152.063919,283.377808 
	C150.081375,283.377716 148.714890,282.852631 150.004242,279.729706 
M610.499756,287.616943 
	C643.497437,287.613068 676.495361,287.549591 709.492554,287.674866 
	C714.013306,287.692017 715.827759,286.181427 715.681641,281.593842 
	C715.448364,274.268463 715.630249,266.930145 715.618958,259.597321 
	C715.606873,251.778549 715.215027,251.386658 707.454285,251.385971 
	C679.122925,251.383499 650.790955,251.296967 622.460693,251.475983 
	C617.843445,251.505173 616.432434,250.005524 616.540771,245.475693 
	C616.807739,234.316177 616.867249,223.138611 616.522217,211.983414 
	C616.365723,206.925049 617.948059,205.454407 623.003418,205.507858 
	C646.499207,205.756332 669.999512,205.537704 693.497009,205.687134 
	C698.054138,205.716125 699.822144,204.071533 699.673889,199.545624 
	C699.461182,193.053070 699.626404,186.548309 699.622253,180.048752 
	C699.616272,170.693268 699.317017,170.402725 690.182495,170.407196 
	C667.517395,170.418259 644.852295,170.410568 622.187195,170.429535 
	C619.225830,170.432022 616.531921,170.587402 616.588562,166.210205 
	C616.750366,153.713226 616.701294,141.212479 616.614441,128.714050 
	C616.593262,125.667603 617.878296,124.495331 620.802246,124.633308 
	C622.796997,124.727448 624.800842,124.616653 626.800659,124.616783 
	C654.132141,124.618492 681.463562,124.638496 708.795044,124.616440 
	C714.996338,124.611443 715.596436,123.959351 715.616638,117.678787 
	C715.640686,110.179390 715.658081,102.679558 715.603577,95.180458 
	C715.559448,89.103378 714.921021,88.425613 709.103699,88.423141 
	C664.273438,88.404121 619.443176,88.402779 574.612915,88.423859 
	C568.420044,88.426773 567.390991,89.472893 567.389221,95.745346 
	C567.371399,157.741104 567.416443,219.736923 567.299805,281.732452 
	C567.290955,286.440948 569.060425,287.770203 573.503479,287.691284 
	C585.498840,287.478271 597.500549,287.617188 610.499756,287.616943 
M775.496094,88.404091 
	C763.160034,88.815659 750.751709,87.536438 738.542480,89.134773 
	C738.250549,91.776535 739.219788,93.200134 740.066406,94.579277 
	C745.978394,104.209549 751.939575,113.809723 757.911560,123.403008 
	C770.381287,143.434174 782.807617,163.492889 795.408508,183.441269 
	C797.393738,186.584106 797.258728,188.895050 795.302917,192.017639 
	C776.606567,221.867218 758.075378,251.820175 739.487305,281.737579 
	C738.609070,283.151184 737.351013,284.583374 738.166443,286.288696 
	C739.061096,288.159698 741.064514,287.589050 742.659485,287.592377 
	C757.488037,287.623535 772.317261,287.527496 787.144714,287.658966 
	C790.582520,287.689453 792.593933,286.487915 794.228271,283.426575 
	C801.978027,268.910278 809.910950,254.491287 817.842529,240.072800 
	C821.901428,232.694443 826.094604,225.389969 830.234802,218.038391 
	C832.652832,219.096085 833.496887,221.003006 834.432129,222.691696 
	C837.332092,227.927567 840.051453,233.263062 842.871399,238.543610 
	C850.703308,253.209305 858.545654,267.869476 866.395935,282.525330 
	C868.037048,285.589172 869.994690,287.752014 874.085083,287.696075 
	C889.244019,287.488586 904.407715,287.648529 919.569336,287.594910 
	C924.711548,287.576721 925.228027,286.541992 922.446472,282.062775 
	C903.700806,251.876801 885.008362,221.656998 866.059692,191.598846 
	C864.092468,188.478317 864.271973,186.494293 866.063293,183.655624 
	C881.503479,159.187439 896.842834,134.655594 912.191162,110.129524 
	C916.473816,103.285950 920.686096,96.398384 925.075806,89.296082 
	C922.556824,88.141785 920.544312,88.403404 918.591187,88.401039 
	C904.262451,88.383652 889.930420,88.571457 875.606689,88.306343 
	C870.760864,88.216660 868.093384,89.963226 865.861572,94.230690 
	C856.156250,112.788620 846.197021,131.215759 836.118958,149.574554 
	C834.572998,152.390732 833.645081,155.778564 830.820740,157.807358 
	C829.332886,157.154861 828.859985,155.877472 828.252197,154.743454 
	C818.204407,135.998108 807.899353,117.383049 798.271057,98.424385 
	C794.548218,91.093819 790.235229,86.564392 781.482239,88.356888 
	C779.883118,88.684364 778.159546,88.403984 775.496094,88.404091 
z"/>
</svg>